<svg xmlns="http://www.w3.org/2000/svg" viewBox="0 0 500 500"><defs><style>.cls-1{fill:#ff8300;}.cls-2{fill:none;}</style></defs><title>icono_consultoria</title><g id="Capa_2" data-name="Capa 2"><g id="Capa_1-2" data-name="Capa 1"><path class="cls-1" d="M61.79,50A11.76,11.76,0,0,0,50,61.81V201.45a11.76,11.76,0,0,0,11.8,11.81h47.68l24.34,34.49h0a11.77,11.77,0,0,0,19.28,0l24.31-34.49H322.6L347,247.75h0a11.77,11.77,0,0,0,19.21,0l24.31-34.49H438.3A11.75,11.75,0,0,0,450,201.45V61.81A11.76,11.76,0,0,0,438.3,50ZM73.54,73.53H426.48v116.2H384.43a11.79,11.79,0,0,0-9.63,4.94l-18.24,25.9-18.25-25.9a11.77,11.77,0,0,0-9.63-4.94H171.31a11.76,11.76,0,0,0-9.62,4.94l-18.25,25.9-18.24-25.9a11.79,11.79,0,0,0-9.63-4.94h-42ZM140.84,95A38.13,38.13,0,1,0,179,133.11,38.31,38.31,0,0,0,140.84,95ZM250,95a38.13,38.13,0,1,0,38.12,38.14A38.33,38.33,0,0,0,250,95Zm109.24,0a38.13,38.13,0,1,0,38.12,38.14A38.39,38.39,0,0,0,359.25,95ZM140.84,118.52a14.59,14.59,0,1,1-14.59,14.59A14.4,14.4,0,0,1,140.84,118.52Zm109.17,0a14.59,14.59,0,1,1-14.59,14.59A14.4,14.4,0,0,1,250,118.52Zm109.24,0a14.59,14.59,0,1,1-14.66,14.59A14.4,14.4,0,0,1,359.25,118.52ZM143.44,267.62A51.55,51.55,0,0,0,108.33,357a70.26,70.26,0,0,0-35.16,60.75v20.5A11.76,11.76,0,0,0,84.91,450H202a11.76,11.76,0,0,0,11.81-11.72v-20.5A70.26,70.26,0,0,0,178.58,357a51.35,51.35,0,0,0,16.63-37.64,52,52,0,0,0-51.77-51.77Zm213.12,0A51.55,51.55,0,0,0,321.45,357a70.26,70.26,0,0,0-35.16,60.75v20.5A11.76,11.76,0,0,0,298,450H415.08a11.77,11.77,0,0,0,11.82-11.72v-20.5A70.23,70.23,0,0,0,391.69,357a51.36,51.36,0,0,0,16.64-37.64,52,52,0,0,0-51.77-51.77ZM143.44,291.15a28.19,28.19,0,1,1-28.13,28.24,28.08,28.08,0,0,1,28.13-28.24Zm213.12,0a28.19,28.19,0,1,1-28.13,28.24A28.07,28.07,0,0,1,356.56,291.15ZM143.44,371.07a46.39,46.39,0,0,1,46.8,46.72v8.68H96.72v-8.68a46.33,46.33,0,0,1,46.72-46.72Zm213.12,0a46.39,46.39,0,0,1,46.8,46.72v8.68H309.84v-8.68a46.32,46.32,0,0,1,46.72-46.72Z"/><rect class="cls-2" width="500" height="500"/></g></g></svg>