<svg xmlns="http://www.w3.org/2000/svg" viewBox="0 0 500 500"><defs><style>.cls-1{fill:#ff8300;}.cls-2{fill:none;}</style></defs><title>icono_educacion</title><g id="Capa_2" data-name="Capa 2"><g id="Capa_1-2" data-name="Capa 1"><path class="cls-1" d="M415.89,343.66a7.34,7.34,0,0,0,7.33-7.34V133.06a7.34,7.34,0,0,0-7.33-7.34H84.11a7.34,7.34,0,0,0-7.33,7.34V336.32a7.34,7.34,0,0,0,7.33,7.34H120v50.92A7.34,7.34,0,0,0,132.22,400l24.25-22,24.28,22A7.33,7.33,0,0,0,193,394.58V343.66ZM91.46,329V140.4H408.55V329H193V282.83a36.53,36.53,0,0,0-73,0V329Zm65-24.31a21.8,21.8,0,0,1,0-43.59,21.57,21.57,0,0,1,21.86,21.73,21.9,21.9,0,0,1-21.87,21.86ZM178.34,378l-17-15.3a7.33,7.33,0,0,0-9.84,0l-16.92,15.32V312c.24.17.51.29.75.45.88.62,1.8,1.14,2.74,1.69.69.39,1.37.79,2.08,1.13h0a35.13,35.13,0,0,0,32.52,0c.77-.37,1.47-.8,2.22-1.2s1.77-1,2.61-1.6c.25-.18.54-.3.79-.49Z"/><path class="cls-1" d="M127.29,403.93a9.33,9.33,0,0,1-9.34-9.35V345.66H84.11a9.41,9.41,0,0,1-6.6-2.74,9.26,9.26,0,0,1-2.73-6.6V133.06a9.34,9.34,0,0,1,9.33-9.33H415.89a9.32,9.32,0,0,1,9.33,9.33V336.32a9.28,9.28,0,0,1-2.73,6.6,9.41,9.41,0,0,1-6.6,2.74H195v48.92a9.26,9.26,0,0,1-2.73,6.6,9.33,9.33,0,0,1-12.86.33l-22.94-20.79-22.91,20.79A9.33,9.33,0,0,1,127.29,403.93ZM84.11,127.73a5.33,5.33,0,0,0-5.33,5.33V336.32a5.3,5.3,0,0,0,1.56,3.78,5.38,5.38,0,0,0,3.77,1.56H122v52.92a5.34,5.34,0,0,0,8.93,4l25.59-23.22,25.62,23.22a5.33,5.33,0,0,0,8.91-4V341.66H415.89a5.33,5.33,0,0,0,5.33-5.34V133.06a5.33,5.33,0,0,0-5.33-5.33Zm48.51,254.83V308l3.2,2.39a.67.67,0,0,0,.18.11l.5.3c.78.55,1.61,1,2.48,1.53l.33.19c.46.27.9.52,1.35.75h0l.44.22a33.1,33.1,0,0,0,30.68,0c.55-.26,1-.53,1.49-.79l.68-.39a27.08,27.08,0,0,0,2.43-1.48,3.64,3.64,0,0,1,.55-.33l.18-.11,3.15-2.22.06,3.81v70.52L160,364.21a5.33,5.33,0,0,0-7.16,0Zm4-66.94v57.92l13.57-12.29a9.31,9.31,0,0,1,12.53,0l13.62,12.28V315.6l-.44.25-.65.36c-.54.31-1.09.61-1.66.89a37.09,37.09,0,0,1-34.26,0c-.72-.33-1.38-.72-2-1.08l-.33-.2ZM410.55,331H191V282.83a34.53,34.53,0,0,0-69,0V331H89.46V138.4H410.55ZM195,327H406.55V142.4H93.46V327H118V282.83a38.53,38.53,0,0,1,77.05,0Zm-38.52-20.31h0a23.88,23.88,0,1,1,16.87-7,23.9,23.9,0,0,1-16.87,7Zm.28-43.59h-.25a19.76,19.76,0,1,0,19.83,19.72,19.56,19.56,0,0,0-19.58-19.72Z"/><path class="cls-1" d="M185.11,178.52H318.39a7.34,7.34,0,0,0,0-14.67H185.11a7.34,7.34,0,1,0,0,14.67Z"/><path class="cls-1" d="M318.38,180.52H185.11a9.34,9.34,0,0,1,0-18.67H318.38a9.34,9.34,0,1,1,0,18.67ZM185.11,165.85a5.34,5.34,0,0,0,0,10.67H318.38a5.34,5.34,0,1,0,0-10.67Z"/><path class="cls-1" d="M151.92,215.18H351.57a7.34,7.34,0,0,0,0-14.67H151.92a7.34,7.34,0,1,0,0,14.67Z"/><path class="cls-1" d="M351.57,217.18H151.92a9.34,9.34,0,1,1,0-18.67H351.57a9.34,9.34,0,0,1,0,18.67ZM151.92,202.51a5.34,5.34,0,1,0,0,10.67H351.57a5.34,5.34,0,0,0,0-10.67Z"/><path class="cls-1" d="M351.57,272.69H318.38a7.34,7.34,0,1,0,0,14.67h33.19a7.34,7.34,0,0,0,0-14.67Z"/><path class="cls-1" d="M351.57,289.36H318.38a9.34,9.34,0,1,1,0-18.67h33.19a9.34,9.34,0,0,1,0,18.67Zm-33.19-14.67a5.34,5.34,0,1,0,0,10.67h33.19a5.34,5.34,0,0,0,0-10.67Z"/><path class="cls-1" d="M84.11,356.51H64.67V336.32a7.34,7.34,0,1,0-14.67,0v27.53a7.34,7.34,0,0,0,7.34,7.33H84.11a7.34,7.34,0,1,0,0-14.67Z"/><path class="cls-1" d="M84.11,373.18H57.34a9.41,9.41,0,0,1-6.6-2.73,9.27,9.27,0,0,1-2.74-6.6V336.32a9.34,9.34,0,1,1,18.67,0v18.19H84.11a9.34,9.34,0,1,1,0,18.67ZM57.34,331A5.35,5.35,0,0,0,52,336.32v27.53a5.34,5.34,0,0,0,1.56,3.77,5.4,5.4,0,0,0,3.78,1.56H84.11a5.34,5.34,0,1,0,0-10.67H62.67V336.32A5.34,5.34,0,0,0,57.34,331Z"/><path class="cls-1" d="M442.66,329a7.33,7.33,0,0,0-7.33,7.33v20.19H415.91a7.34,7.34,0,1,0,0,14.67h26.75a7.34,7.34,0,0,0,7.34-7.33V336.32a7.32,7.32,0,0,0-7.34-7.33Z"/><path class="cls-1" d="M442.67,373.18H415.91a9.34,9.34,0,1,1,0-18.67h17.42V336.32a9.34,9.34,0,1,1,18.67,0v27.53a9.28,9.28,0,0,1-2.73,6.6,9.4,9.4,0,0,1-6.6,2.73Zm-26.76-14.67a5.34,5.34,0,1,0,0,10.67h26.75a5.39,5.39,0,0,0,3.78-1.56,5.29,5.29,0,0,0,1.56-3.77V336.32a5.34,5.34,0,0,0-10.67,0v22.19Z"/><path class="cls-1" d="M442.66,98.07H415.89a7.34,7.34,0,1,0,0,14.68h19.44v20.33a7.34,7.34,0,1,0,14.67,0V105.41A7.34,7.34,0,0,0,442.66,98.07Z"/><path class="cls-1" d="M442.66,142.42a9.35,9.35,0,0,1-9.33-9.34V114.75H415.89a9.34,9.34,0,1,1,0-18.68h26.77a9.35,9.35,0,0,1,9.34,9.34v27.67A9.35,9.35,0,0,1,442.66,142.42Zm-26.77-42.35a5.34,5.34,0,1,0,0,10.68h21.44v22.33a5.34,5.34,0,1,0,10.67,0V105.41a5.35,5.35,0,0,0-5.34-5.34Z"/><path class="cls-1" d="M57.34,140.41a7.34,7.34,0,0,0,7.33-7.33V112.74H84.09a7.34,7.34,0,1,0,0-14.67H57.34A7.33,7.33,0,0,0,50,105.41v27.67a7.34,7.34,0,0,0,7.34,7.33Z"/><path class="cls-1" d="M57.34,142.41a9.41,9.41,0,0,1-6.61-2.73,9.28,9.28,0,0,1-2.73-6.6V105.41a9.35,9.35,0,0,1,9.34-9.34H84.09a9.34,9.34,0,1,1,0,18.67H66.67v18.34a9.32,9.32,0,0,1-9.33,9.33Zm0-42.34A5.35,5.35,0,0,0,52,105.41v27.67a5.29,5.29,0,0,0,1.56,3.77,5.4,5.4,0,0,0,3.78,1.56,5.29,5.29,0,0,0,3.77-1.56,5.38,5.38,0,0,0,1.56-3.77V110.74H84.09a5.34,5.34,0,1,0,0-10.67Z"/><rect class="cls-2" width="500" height="500"/></g></g></svg>