<?xml version="1.0" encoding="utf-8"?>
<!-- Generator: Adobe Illustrator 25.2.1, SVG Export Plug-In . SVG Version: 6.00 Build 0)  -->
<svg version="1.1" id="Layer_1" xmlns="http://www.w3.org/2000/svg" xmlns:xlink="http://www.w3.org/1999/xlink" x="0px" y="0px"
	 viewBox="0 0 72 72" style="enable-background:new 0 0 72 72;" xml:space="preserve">
<style type="text/css">
	.st0{fill:#FF8300;}
</style>
<path class="st0" d="M24.8,58.4v-2.2c0-3.7-1.7-7.3-4.5-9.7l-1.6-3.2c-0.7-1.4-2.3-2-3.8-1.4c-0.4,0.2-0.7,0.4-1,0.8
	c-0.6,0.7-0.8,1.6-0.6,2.5l0.7,3.4c0,0.1,0,0.2,0.1,0.3l0,0.1c-2.5-2.7-4.2-6-4.7-9.7L9,36.6c-0.2-1.6-1.6-2.8-3.3-2.8
	c-0.9,0-1.8,0.4-2.4,1.1c-0.6,0.7-1,1.7-0.8,2.7l0.6,5.1c0.7,6,3.3,11.7,7.5,16.1c-0.2,0.2-0.3,0.5-0.3,0.8v9c0,0.6,0.5,1.1,1.1,1.1
	h13.4c0.6,0,1.1-0.5,1.1-1.1v-9C25.9,58.9,25.4,58.4,24.8,58.4z M5.3,42.4l-0.6-5.1c0-0.3,0.1-0.7,0.3-0.9C5.1,36.1,5.4,36,5.7,36
	c0.5,0,1,0.4,1,0.9l0.4,2.6c0.9,5.9,4.4,11.1,9.5,14.2c0.5,0.3,1.2,0.1,1.5-0.4c0.2-0.3,0.2-0.7,0-1.1L16.1,48l-0.6-3.3
	c0-0.2,0-0.5,0.2-0.6c0.1-0.1,0.3-0.2,0.5-0.2c0.2,0,0.5,0.2,0.6,0.4l1.7,3.5c0.1,0.2,0.2,0.3,0.3,0.4c2.5,2,3.9,4.9,3.9,8.1v2.2
	h-9.2C8.8,54.2,6,48.5,5.3,42.4z M23.7,67.3H12.5v-6.7h11.2V67.3z"/>
<path class="st0" d="M66.3,33.8c-1.6,0-3,1.2-3.2,2.8l-0.4,2.6c-0.6,3.6-2.2,7-4.7,9.7l0-0.1c0-0.1,0.1-0.2,0.1-0.3l0.7-3.4
	c0.2-0.9-0.1-1.8-0.6-2.5c-1-1.2-2.8-1.4-4-0.4c-0.3,0.3-0.6,0.6-0.8,1l-1.6,3.2c-2.9,2.4-4.5,5.9-4.5,9.7v2.2
	c-0.6,0-1.1,0.5-1.1,1.1v9c0,0.6,0.5,1.1,1.1,1.1h13.4c0.6,0,1.1-0.5,1.1-1.1v-9c0-0.3-0.1-0.6-0.3-0.8c4.2-4.4,6.8-10,7.5-16.1
	l0.6-5.1c0.1-1-0.2-2-0.8-2.7C68.1,34.2,67.2,33.8,66.3,33.8z M59.5,67.3H48.3v-6.7h11.2V67.3z M66.7,42.4c-0.7,6.1-3.6,11.8-8.1,16
	h-9.2v-2.2c0-3.1,1.4-6.1,3.9-8.1c0.1-0.1,0.2-0.2,0.3-0.4l1.7-3.5c0.1-0.2,0.3-0.4,0.6-0.4c0.2,0,0.4,0.1,0.5,0.2
	c0.1,0.2,0.2,0.4,0.2,0.6L55.8,48l-2.1,4.3c-0.3,0.6,0,1.2,0.5,1.5c0.3,0.2,0.7,0.1,1.1,0c5.1-3.1,8.6-8.3,9.5-14.2l0.4-2.6
	c0.1-0.5,0.5-0.9,1-0.9c0.3,0,0.6,0.1,0.8,0.4c0.2,0.3,0.3,0.6,0.3,0.9L66.7,42.4z"/>
<path class="st0" d="M47.2,30.4v-4.2c5.1-6.2,4.3-15.4-1.9-20.5c-6.2-5.1-15.4-4.3-20.5,1.9c-4.5,5.4-4.5,13.2,0,18.6v4.2
	c0,0.2,0,0.3,0.1,0.5l2.2,4.5c0.2,0.4,0.6,0.6,1,0.6v5.6c0,1.9,1.5,3.4,3.4,3.4h9c1.9,0,3.4-1.5,3.4-3.4V36c0.4,0,0.8-0.2,1-0.6
	l2.2-4.5C47.2,30.7,47.2,30.6,47.2,30.4z M41.6,41.6c0,0.6-0.5,1.1-1.1,1.1h-9c-0.6,0-1.1-0.5-1.1-1.1V36h11.2V41.6z M34.9,23.7
	c0-0.6,0.5-1.1,1.1-1.1c0.6,0,1.1,0.5,1.1,1.1s-0.5,1.1-1.1,1.1C35.4,24.8,34.9,24.3,34.9,23.7z M45,25.8v4.3l-1.8,3.6h-1.5v-5
	l1.8-1.3c0.3-0.2,0.5-0.5,0.5-0.9v-8.6c1.7-0.6,2.7-2.5,2-4.3c-0.6-1.7-2.5-2.7-4.3-2c-1.7,0.6-2.7,2.5-2,4.3c0.3,1,1.1,1.7,2,2V26
	l-1.8,1.3c-0.3,0.2-0.5,0.5-0.5,0.9v5.6h-2.2v-6.9c1.7-0.6,2.7-2.5,2-4.3c-0.6-1.7-2.5-2.7-4.3-2c-1.7,0.6-2.7,2.5-2,4.3
	c0.3,1,1.1,1.7,2,2v6.9h-2.2v-5.6c0-0.4-0.2-0.7-0.5-0.9L30.4,26v-8.1c1.7-0.6,2.7-2.5,2-4.3c-0.6-1.7-2.5-2.7-4.3-2
	c-1.7,0.6-2.7,2.5-2,4.3c0.3,1,1.1,1.7,2,2v8.6c0,0.4,0.2,0.7,0.5,0.9l1.8,1.3v5h-1.5L27,30.1v-4.3c0-0.3-0.1-0.5-0.3-0.7
	c-4.5-5.1-4-12.9,1.1-17.4s12.9-4,17.4,1.1c4.1,4.7,4.1,11.6,0,16.3C45.1,25.3,45,25.6,45,25.8z M41.6,14.7c0-0.6,0.5-1.1,1.1-1.1
	c0.6,0,1.1,0.5,1.1,1.1c0,0.6-0.5,1.1-1.1,1.1C42.1,15.8,41.6,15.3,41.6,14.7z M29.3,15.8c-0.6,0-1.1-0.5-1.1-1.1
	c0-0.6,0.5-1.1,1.1-1.1s1.1,0.5,1.1,1.1C30.4,15.3,29.9,15.8,29.3,15.8z"/>
</svg>
