<svg xmlns="http://www.w3.org/2000/svg" viewBox="0 0 500 500"><defs><style>.cls-1{fill:#ff8300;}.cls-2{fill:none;}</style></defs><title>icono_soporte</title><g id="Capa_2" data-name="Capa 2"><g id="Capa_1-2" data-name="Capa 1"><path class="cls-1" d="M430.19,167.58l5-2.91a28.21,28.21,0,0,0,10.31-38.48l-7.71-13.35a28.14,28.14,0,0,0-38.47-10.31l-5.09,2.94a4.11,4.11,0,0,1-2,.55,3.62,3.62,0,0,1-2.32-.81,107.9,107.9,0,0,0-30.41-17.55A3.81,3.81,0,0,1,357.15,84V78.17A28.21,28.21,0,0,0,329,50H313.56a28.21,28.21,0,0,0-28.17,28.17V84a3.83,3.83,0,0,1-2.34,3.63,107.9,107.9,0,0,0-30.41,17.55,3.62,3.62,0,0,1-2.32.81,4.14,4.14,0,0,1-2-.55l-5.08-2.94a28.15,28.15,0,0,0-38.48,10.31L197,126.2a28.21,28.21,0,0,0,10.32,38.48l5,2.9a3.88,3.88,0,0,1,2,3.9,106.33,106.33,0,0,0,0,35.12,3.86,3.86,0,0,1-2,3.89l-5,2.91A28.21,28.21,0,0,0,197,251.88l7.71,13.35a28.17,28.17,0,0,0,38.48,10.32l5.09-2.95a4.11,4.11,0,0,1,2-.55,3.64,3.64,0,0,1,2.32.81,108,108,0,0,0,30.4,17.55A3.82,3.82,0,0,1,285.4,294v5.86a28.2,28.2,0,0,0,28.16,28.17H329a28.21,28.21,0,0,0,28.17-28.17V294a3.83,3.83,0,0,1,2.34-3.63,108.14,108.14,0,0,0,30.41-17.55,3.62,3.62,0,0,1,2.32-.81,4.14,4.14,0,0,1,2,.55l5.08,2.94a28.15,28.15,0,0,0,38.48-10.31l7.71-13.36a28.2,28.2,0,0,0-10.31-38.48l-5-2.9a3.85,3.85,0,0,1-2-3.9,107.05,107.05,0,0,0,0-35.12,3.83,3.83,0,0,1,1.95-3.89Zm-6.86-11.89a17.54,17.54,0,0,0-8.63,18,93.71,93.71,0,0,1,0,30.63,17.54,17.54,0,0,0,8.63,18l5,2.91A14.44,14.44,0,0,1,433.65,245l-7.71,13.35a14.43,14.43,0,0,1-19.73,5.29l-5.09-2.94a17.77,17.77,0,0,0-8.9-2.39,17.35,17.35,0,0,0-11,3.92,94.49,94.49,0,0,1-26.54,15.32A17.54,17.54,0,0,0,343.43,294v5.87A14.44,14.44,0,0,1,329,314.35H313.56a14.45,14.45,0,0,1-14.44-14.44V294a17.54,17.54,0,0,0-11.23-16.47,94.54,94.54,0,0,1-26.55-15.32,17.28,17.28,0,0,0-11-3.92,17.87,17.87,0,0,0-8.9,2.39l-5.1,2.94a14.42,14.42,0,0,1-19.72-5.28L208.9,245a14.45,14.45,0,0,1,5.28-19.73l5-2.91a17.52,17.52,0,0,0,8.63-18,93,93,0,0,1,0-30.63,17.54,17.54,0,0,0-8.63-18l-5-2.91a14.45,14.45,0,0,1-5.28-19.73l7.7-13.36a14.45,14.45,0,0,1,19.74-5.28l5.08,2.93a17.81,17.81,0,0,0,8.91,2.39,17.35,17.35,0,0,0,11-3.91,94.57,94.57,0,0,1,26.55-15.33A17.53,17.53,0,0,0,299.12,84V78.17a14.44,14.44,0,0,1,14.44-14.45H329a14.45,14.45,0,0,1,14.45,14.45V84a17.53,17.53,0,0,0,11.22,16.47,94.29,94.29,0,0,1,26.55,15.33,17.35,17.35,0,0,0,11,3.91,17.81,17.81,0,0,0,8.91-2.39l5.09-2.94a14.42,14.42,0,0,1,19.72,5.29l7.72,13.35a14.45,14.45,0,0,1-5.29,19.73Z"/><path class="cls-1" d="M329,331.57H313.56A31.7,31.7,0,0,1,281.9,299.9V294a.58.58,0,0,0-.12-.38,111,111,0,0,1-31.35-18.09.52.52,0,0,0-.38.06l-5.1,2.95A31.68,31.68,0,0,1,201.69,267L194,253.63a31.71,31.71,0,0,1,11.6-43.26l5-2.91a.47.47,0,0,0,.25-.3,110.26,110.26,0,0,1,0-36.25.47.47,0,0,0-.24-.29l-5-2.91A31.72,31.72,0,0,1,194,124.45l7.71-13.36A31.64,31.64,0,0,1,244.94,99.5l5.09,2.94c.14.07.31.12.4.06a111.21,111.21,0,0,1,31.39-18.11h0a1.45,1.45,0,0,0,.07-.36V78.17A31.71,31.71,0,0,1,313.56,46.5H329a31.71,31.71,0,0,1,31.67,31.67V84a.57.57,0,0,0,.12.37,111,111,0,0,1,31.35,18.1c.07,0,.26,0,.37-.06l5.11-3a31.64,31.64,0,0,1,43.25,11.59l7.72,13.35A31.72,31.72,0,0,1,437,167.7l-5,2.91a.51.51,0,0,0-.25.29,110.38,110.38,0,0,1,0,36.27.61.61,0,0,0,.26.28l5,2.91a31.71,31.71,0,0,1,11.59,43.26L440.86,267a31.65,31.65,0,0,1-43.26,11.59l-5.09-2.94c-.13-.07-.31-.13-.39-.06a111.21,111.21,0,0,1-31.39,18.11h0a1.45,1.45,0,0,0-.07.36v5.86A31.71,31.71,0,0,1,329,331.57Zm-78.66-63a7.15,7.15,0,0,1,4.53,1.59,104.15,104.15,0,0,0,29.43,17A7.35,7.35,0,0,1,288.9,294v5.86a24.69,24.69,0,0,0,24.66,24.67H329a24.7,24.7,0,0,0,24.67-24.67V294a7.36,7.36,0,0,1,4.6-6.91,104.25,104.25,0,0,0,29.43-17,7.14,7.14,0,0,1,4.54-1.6,7.59,7.59,0,0,1,3.79,1l5.08,2.94a24.66,24.66,0,0,0,33.7-9l7.71-13.36a24.7,24.7,0,0,0-9-33.7l-5-2.9a7.38,7.38,0,0,1-3.66-7.5,103.73,103.73,0,0,0,0-34,7.33,7.33,0,0,1,3.65-7.5h0l5-2.91a24.7,24.7,0,0,0,9-33.7l-7.71-13.35a24.65,24.65,0,0,0-33.69-9L396,108.5a7.5,7.5,0,0,1-3.79,1,7.09,7.09,0,0,1-4.53-1.59,104.29,104.29,0,0,0-29.43-17,7.34,7.34,0,0,1-4.61-6.9V78.17A24.7,24.7,0,0,0,329,53.5H313.56a24.7,24.7,0,0,0-24.67,24.67V84a7.33,7.33,0,0,1-4.6,6.9,104.39,104.39,0,0,0-29.43,17,7.14,7.14,0,0,1-4.54,1.6,7.59,7.59,0,0,1-3.79-1l-5.09-2.94a24.64,24.64,0,0,0-33.69,9L200.05,128a24.7,24.7,0,0,0,9,33.7l5,2.9a7.38,7.38,0,0,1,3.66,7.5,103,103,0,0,0,0,34,7.4,7.4,0,0,1-3.66,7.51l-5,2.9a24.7,24.7,0,0,0-9,33.7l7.71,13.35a24.65,24.65,0,0,0,33.69,9l5.09-2.94A7.61,7.61,0,0,1,250.33,268.55ZM329,317.85H313.56a18,18,0,0,1-17.94-17.94V294a14.08,14.08,0,0,0-9-13.19A97.49,97.49,0,0,1,259.13,265a13.93,13.93,0,0,0-8.8-3.12,14.5,14.5,0,0,0-7.16,1.92l-5.09,2.94a17.92,17.92,0,0,1-24.5-6.56l-7.71-13.36a18,18,0,0,1,6.56-24.51l5-2.91a14.12,14.12,0,0,0,6.93-14.42,96.3,96.3,0,0,1,0-31.78,14.12,14.12,0,0,0-6.93-14.42l-5-2.91a17.93,17.93,0,0,1-6.56-24.51l7.7-13.35a18,18,0,0,1,24.52-6.58l5.09,2.94a14.25,14.25,0,0,0,7.15,1.93,13.87,13.87,0,0,0,8.79-3.13,97.65,97.65,0,0,1,27.54-15.89,14.09,14.09,0,0,0,9-13.2V78.17a18,18,0,0,1,17.94-18H329a18,18,0,0,1,17.94,18V84a14.1,14.1,0,0,0,9,13.2,97.7,97.7,0,0,1,27.53,15.89,13.87,13.87,0,0,0,8.79,3.13,14.37,14.37,0,0,0,7.16-1.93l5.09-2.94A17.92,17.92,0,0,1,429,118l7.71,13.35a17.94,17.94,0,0,1-6.57,24.51l-5,2.91a14.12,14.12,0,0,0-6.93,14.43,97,97,0,0,1,0,31.77,14.12,14.12,0,0,0,6.93,14.43l5,2.9a18,18,0,0,1,6.57,24.52L429,260.12a17.92,17.92,0,0,1-24.51,6.57l-5.09-2.94a14.37,14.37,0,0,0-7.15-1.92,13.93,13.93,0,0,0-8.8,3.12,97.63,97.63,0,0,1-27.53,15.9,14.08,14.08,0,0,0-9,13.19v5.87A18,18,0,0,1,329,317.85Zm-78.66-63a20.88,20.88,0,0,1,13.23,4.71,90.84,90.84,0,0,0,25.57,14.76A21.12,21.12,0,0,1,302.62,294v5.87a11,11,0,0,0,10.94,10.94H329a11,11,0,0,0,10.94-10.94V294a21.11,21.11,0,0,1,13.49-19.74A91.12,91.12,0,0,0,379,259.54a20.88,20.88,0,0,1,13.23-4.71,21.33,21.33,0,0,1,10.65,2.86l5.09,2.94a10.93,10.93,0,0,0,15-4l7.71-13.35a10.95,10.95,0,0,0-4-15l-5-2.91a21.15,21.15,0,0,1-10.34-21.63,89.71,89.71,0,0,0,0-29.49,21.14,21.14,0,0,1,10.34-21.63l5-2.91a10.93,10.93,0,0,0,4-14.95l-7.71-13.35a10.92,10.92,0,0,0-14.94-4l-5.09,2.94a21.36,21.36,0,0,1-10.66,2.87A21,21,0,0,1,379,118.54a90.41,90.41,0,0,0-25.56-14.76A21.13,21.13,0,0,1,339.93,84V78.17a11,11,0,0,0-10.94-11H313.56a11,11,0,0,0-10.94,11V84a21.12,21.12,0,0,1-13.49,19.75,90.74,90.74,0,0,0-25.57,14.76,21,21,0,0,1-13.23,4.71,21.27,21.27,0,0,1-10.66-2.87l-5.08-2.93a10.94,10.94,0,0,0-15,4l-7.71,13.36a10.94,10.94,0,0,0,4,14.95l5,2.91A21.14,21.14,0,0,1,231.3,174.3a89.65,89.65,0,0,0,0,29.48A21.16,21.16,0,0,1,221,225.42l-5,2.9a11,11,0,0,0-4,15l7.71,13.36a10.94,10.94,0,0,0,15,4l5.09-2.94A21.39,21.39,0,0,1,250.33,254.83Z"/><path class="cls-1" d="M321.27,137.09A51.94,51.94,0,1,0,373.2,189a52,52,0,0,0-51.93-51.94Zm0,90.16A38.22,38.22,0,1,1,359.48,189,38.22,38.22,0,0,1,321.27,227.25Z"/><path class="cls-1" d="M321.27,244.46A55.41,55.41,0,1,1,376.7,189,55.49,55.49,0,0,1,321.27,244.46Zm0-103.87A48.5,48.5,0,1,0,355.5,154.8,48.49,48.49,0,0,0,321.27,140.59Zm0,90.16A41.72,41.72,0,1,1,363,189,41.77,41.77,0,0,1,321.27,230.75Zm0-76.43A34.72,34.72,0,1,0,356,189,34.76,34.76,0,0,0,321.27,154.32Z"/><path class="cls-1" d="M68.29,196.28a37.49,37.49,0,1,0,37.49-37.49A37.48,37.48,0,0,0,68.29,196.28Zm61.25,0a23.76,23.76,0,1,1-23.76-23.77A23.79,23.79,0,0,1,129.54,196.28Z"/><path class="cls-1" d="M105.78,237.26a41,41,0,1,1,0-82h0a41,41,0,0,1,0,82Zm0-75a34,34,0,1,0,34,34,33.75,33.75,0,0,0-34-34Zm0,61.25a27.27,27.27,0,0,1,0-54.53h0a27.27,27.27,0,0,1,0,54.53Zm0-47.53h0a20.3,20.3,0,1,0,14.32,6A20.29,20.29,0,0,0,105.78,176Z"/><path class="cls-1" d="M137.68,251.92H73.88a23.21,23.21,0,0,0-23.19,23.19v76.75A23.22,23.22,0,0,0,68.8,374.48v52.33A23.21,23.21,0,0,0,92,450h27.6a23.21,23.21,0,0,0,23.18-23.19V374.49a23.23,23.23,0,0,0,18.1-22.63V275.11a23.21,23.21,0,0,0-23.19-23.19Zm9.47,99.94a9.48,9.48,0,0,1-9.47,9.46H129v65.49a9.47,9.47,0,0,1-9.46,9.46H92a9.47,9.47,0,0,1-9.46-9.46V361.33H73.89a9.47,9.47,0,0,1-9.46-9.47V275.11a9.47,9.47,0,0,1,9.46-9.47h63.8a9.48,9.48,0,0,1,9.46,9.47v76.75Z"/><path class="cls-1" d="M119.58,453.5H92A26.71,26.71,0,0,1,65.3,426.81V377.13a26.92,26.92,0,0,1-18.11-25.27V275.11a26.72,26.72,0,0,1,26.69-26.69h63.8a26.72,26.72,0,0,1,26.69,26.69v76.75a26.91,26.91,0,0,1-18.1,25.27v49.68A26.71,26.71,0,0,1,119.58,453.5ZM73.88,255.42a19.71,19.71,0,0,0-19.69,19.69v76.75a19.83,19.83,0,0,0,15.37,19.21l2.74.61v55.13A19.71,19.71,0,0,0,92,446.5h27.6a19.71,19.71,0,0,0,19.68-19.69V371.69l2.73-.62a19.82,19.82,0,0,0,15.37-19.21V275.11a19.71,19.71,0,0,0-19.69-19.69H73.88Zm45.7,184.35H92a13,13,0,0,1-13-13v-62H73.89a13,13,0,0,1-13-13V275.11a13,13,0,0,1,13-13h63.8a13,13,0,0,1,13,13v80.25h-.48a13,13,0,0,1-12.49,9.46h-5.14v62A13,13,0,0,1,119.58,439.77ZM73.89,269.14a6,6,0,0,0-6,6v76.75a6,6,0,0,0,6,6H86v69a6,6,0,0,0,6,6h27.59a6,6,0,0,0,6-6v-69h12.14a6,6,0,0,0,6-6V275.11a6,6,0,0,0-6-6Z"/><rect class="cls-2" width="500" height="500"/></g></g></svg>